<svg xmlns="http://www.w3.org/2000/svg" width="208.368" height="74.408" viewBox="0 0 208.368 74.408">
  <path id="logo--script.004ada05" d="M122.772,40.105c-.287.433-.469.73-.669,1.016a22.386,22.386,0,0,1-6.805,6.793,16.683,16.683,0,0,1-12.279,2.255,30.841,30.841,0,0,1-6.362-2.709,1.042,1.042,0,0,0-1.171.02,50.485,50.485,0,0,1-5.424,3.059c-3.363,1.456-6.9,2.271-10.563,1.3a15.377,15.377,0,0,1-6.071-3.454c-1.271-1.1-1.353-1.1-2.642-.041a25.85,25.85,0,0,1-7.8,4.154,43.974,43.974,0,0,1-10.722,2.4c-4.471.443-8.618-.317-11.644-3.992a9.235,9.235,0,0,1-1.59-9.913c1.625-3.889,3.5-7.673,5.269-11.5.92-2,1.846-3.989,2.739-6a3.41,3.41,0,0,0,.248-1.206c.035-.748.187-1.568-.678-2.018a2,2,0,0,0-2.575.444A20.906,20.906,0,0,0,41.9,24.026c-2,3.845-3.941,7.724-5.895,11.594-1.466,2.9-2.9,5.816-4.382,8.71a5.249,5.249,0,0,1-6.889,2.724A2.562,2.562,0,0,1,23.007,44.9a8.141,8.141,0,0,1,.816-4.271c1.186-3,2.387-5.989,3.572-8.987.635-1.607,1.27-3.216,1.866-4.839a4.563,4.563,0,0,0,.056-3.452,2.112,2.112,0,0,0-2.159-1.388A2.777,2.777,0,0,0,24.7,23.718c-1.507,3.721-2.953,7.467-4.436,11.2-1.774,4.465-3.518,8.943-5.365,13.378a6.558,6.558,0,0,1-3.451,3.833,7.979,7.979,0,0,1-2.819.59,8.144,8.144,0,0,1-7.242-3.453A7.443,7.443,0,0,1,.331,42.708C.95,40.537,1.569,38.365,2.218,36.2c.615-2.05,1.269-4.088,1.907-6.132.6-1.9,1.151-3.82,1.8-5.705,1.27-3.712,2.294-7.535,4.306-10.939a10.146,10.146,0,0,1,6.165-4.37c2.674-.816,4.952.211,7.236,1.347.866.43,1.72.889,2.609,1.264a3.142,3.142,0,0,0,3.372-.625c.82-.667,1.647-1.334,2.4-2.072,1.887-1.843,5.964-2.184,7.957-.04.459.494,1,.91,1.507,1.358,1.043.921,1.474,1.015,2.681.334,2.87-1.62,5.843-1.4,8.765-.357a5.854,5.854,0,0,1,3.358,3.749,9.662,9.662,0,0,1-.4,7.3c-1.757,4.343-3.671,8.622-5.385,12.981a77.11,77.11,0,0,0-2.6,7.925,7.149,7.149,0,0,0-.022,3.485c.42,1.661,1.941,2.205,3.48,2.4a17.512,17.512,0,0,0,6.888-.759c1.917-.528,3.805-1.18,5.678-1.857a23.74,23.74,0,0,0,2.608-1.266c.738-.373.795-.919.406-1.606-.794-1.4-1.63-2.786-2.329-4.236-1.479-3.065-2.7-6.227-2.372-9.722.284-3.059,1.388-5.716,4.211-7.326,4.167-2.375,7.548-1.719,10.611,1.829a11.073,11.073,0,0,1,2.385,10.723,65.892,65.892,0,0,1-2.415,6.494,1.051,1.051,0,0,0,.274,1.321,19.345,19.345,0,0,0,5.974,3.812,14.526,14.526,0,0,0,2.609.773,6.764,6.764,0,0,0,5.269-1.15c.757-.513.774-.992.248-1.708a20.905,20.905,0,0,1-4.005-16.639c.412-2.284,1.468-4.441,3.92-5.1a12.753,12.753,0,0,1,4.8-.189,8.92,8.92,0,0,1,6.453,3.552,9.994,9.994,0,0,1,1.557,8.7,18.865,18.865,0,0,1-3.087,6.08c-.52.744-.54,1.43.169,1.927a15.3,15.3,0,0,0,3.432,2.051,12.452,12.452,0,0,0,8.155.012A9.646,9.646,0,0,0,119,38.01c1.413-3.475,1.43-7.115,1.359-10.769-.057-2.855-.157-5.709-.241-8.564-.03-1.02-.194-1.079-1.166-.881-2.561.517-5.134.975-7.7,1.445-.811.147-1.628.247-2.438.393-1.765.318-3.222-.408-3.322-2.473-.1-2.081-.4-4.152-.617-6.229q-.019-.175-.028-.352c-.119-2.444.472-3.773,3.406-3.666,3.03.111,6.059.211,9.085.37,1.489.077,2.012-.3,2.11-1.775.076-1.147.107-2.294.179-3.44.108-1.719.5-2.128,2.246-2.059a17.418,17.418,0,0,1,3.114.453,2.8,2.8,0,0,1,2.291,2.766c.081,1.172.047,2.353.028,3.529-.015.832.243,1.278,1.176,1.373,2.692.274,5.374.649,8.06.967,1.268.151,1.98.664,2.152,1.608.3,1.638-.056,2.76-1.293,3.207a52.533,52.533,0,0,1-5.305,1.543c-1.251.309-2.547.441-3.819.675a1.4,1.4,0,0,0-1.309,1.565c.032,4.74-.075,9.485.062,14.221a18.683,18.683,0,0,0,1.5,7.3,3.667,3.667,0,0,0,4.347,2.28,17.336,17.336,0,0,0,8.092-3.433,5.3,5.3,0,0,0,2.255-4.1q.179-4.854.469-9.7a10.059,10.059,0,0,1,.471-2.768c.173-.482.806-1.12,1.247-1.133a62.793,62.793,0,0,1,7.309.112,2.9,2.9,0,0,1,2.491,3.172c-.109,2.259-.4,4.511-.616,6.765-.266,2.782-.51,5.566-.806,8.344-.3,2.812,1.95,4.206,4.175,4.234,1.867.022,2.969-.674,3.762-2.65a30.4,30.4,0,0,0,1.664-6.448c.5-3.1.738-6.251,1.108-9.377a2.73,2.73,0,0,1,1.938-2.471c1.146-.246,2.649.219,3.024,1.266a6.667,6.667,0,0,1,.133,2.9c-.4,3.56-.989,7.1-1.322,10.669a4.014,4.014,0,0,0,3.152,4.4,18.719,18.719,0,0,0,3.26.7c1.929.221,3.3-1.188,3.7-3.381.341-1.844.386-3.742.552-5.618.194-2.227.222-4.483.6-6.677a8.543,8.543,0,0,1,6.548-7.143A19.844,19.844,0,0,1,193.1,18.8a9.836,9.836,0,0,1,8.407,6.906,15.022,15.022,0,0,1-.5,9.086A15.968,15.968,0,0,1,194.684,43a3.48,3.48,0,0,0-.652.829c.377.167.757.483,1.132.477a19.584,19.584,0,0,0,10.069-2.755,24.514,24.514,0,0,1,2.2-1.095c.678-.321,1.078.059.889.644A8.912,8.912,0,0,1,207,43.9a13.94,13.94,0,0,1-10.465,5.247,44.307,44.307,0,0,1-5.37-.217c-1.351-.076-2.7-.193-4.051-.285a1.076,1.076,0,0,0-1.253.952,118.523,118.523,0,0,0-2.2,13.479,73.936,73.936,0,0,1-1.565,8.478,3.731,3.731,0,0,1-3.186,2.82,1.7,1.7,0,0,1-2.029-1.177,9.458,9.458,0,0,1-.6-2.38,55.637,55.637,0,0,1,.337-11.893c.268-2.012.446-4.035.676-6.052.162-1.4.374-2.8.505-4.206.1-1.135-.155-1.4-1.242-1.619-2.248-.448-4.5-.889-6.736-1.385a3.8,3.8,0,0,0-3.737,1.248A15.077,15.077,0,0,1,161.4,50.3a11.779,11.779,0,0,1-6.7.394,11.007,11.007,0,0,1-7.615-4.919,21.7,21.7,0,0,1-1.423-2.711c-.249-.514-.473-.714-1.076-.407-2.139,1.089-4.269,2.207-6.477,3.14a11.5,11.5,0,0,1-7.682.676,11.959,11.959,0,0,1-6.123-4.4C123.875,41.522,123.447,40.969,122.772,40.105Zm73.371-10.194c-.028-.352-.028-.707-.087-1.054a2.438,2.438,0,0,0-3.966-1.7,8.1,8.1,0,0,0-1.9,2.035A27.646,27.646,0,0,0,187,37.622a8.476,8.476,0,0,0-.307,2.264c.028,1.4.854,1.816,2.029,1.058a19.316,19.316,0,0,0,5.773-6.185A8.694,8.694,0,0,0,196.144,29.911ZM100.4,31.327a4.79,4.79,0,0,0-1.332-3.689,2.008,2.008,0,0,0-2.1-.543,2.241,2.241,0,0,0-1.6,2.262c-.144,2.363.871,4.393,1.915,6.392.538,1.029,1.049,1,1.744.045A7.5,7.5,0,0,0,100.4,31.327Zm-24.089-.451a19.845,19.845,0,0,0-.8-2.554,2.371,2.371,0,0,0-2.758-1.2c-1.136.3-1.585.84-1.468,2.239A20.329,20.329,0,0,0,72,32.974a11.778,11.778,0,0,0,1.037,2.514c.583,1.067,1.192,1.078,1.765.044A10.928,10.928,0,0,0,76.313,30.876Z" transform="translate(0.001 -0.002)" fill="#f64060"/>
</svg>
